<svg xmlns="http://www.w3.org/2000/svg" width="800" height="800" fill="none" viewBox="0 0 24 24"><path fill="#323232" d="M18.6713 2.62664c-.1085-.26181-.3179-.46212-.5754-.55037l-.0019-.00063-.0018-.00063-.0038-.00127-.0079-.0026-.0169-.00531a1.1482 1.1482 0 0 0-.0384-.01096 1.39364 1.39364 0 0 0-.0947-.02168c-.0712-.01378-.1577-.02532-.2597-.0304-.2048-.0102-.4671.00579-.7891.07775-.537.11999-1.2341.3941-2.1093.95577a11.41374 11.41374 0 0 0-.1739.11385 11.02228 11.02228 0 0 0-.1765-.04216c-1.5959-.36717-3.2478-.36717-4.84375 0a10.87276 10.87276 0 0 0-.17652.04217 11.39155 11.39155 0 0 0-.17398-.11386c-.87612-.56196-1.57484-.83602-2.1132-.95592-.32276-.07187-.58564-.08777-.79055-.07761-.10214.00506-.18864.01653-.25972.03021a1.39778 1.39778 0 0 0-.09445.02148 1.15997 1.15997 0 0 0-.0382.01084l-.01682.00525-.00783.00255-.00378.00126-.00185.00062-.00183.00062c-.25973.08836-.47075.29062-.57903.555-.40333.98479-.51039 2.07073-.31614 3.11245a5.55423 5.55423 0 0 0 .03045.15152 5.52983 5.52983 0 0 0-.12137.17981c-.60572.9365-.9279 2.05352-.9128 3.20054.00145 2.45657.71902 4.13897 1.93257 5.22157.68694.6128 1.48423.9879 2.28553 1.2243.09169.0271.18344.0523.27508.0759a3.62156 3.62156 0 0 0-.0374.1406 3.67463 3.67463 0 0 0-.09558.6088 1.04207 1.04207 0 0 0-.00254.0561l-.03393 1.8188-.00019.0197v.017a1.48337 1.48337 0 0 1-.76807-.0143 1.49029 1.49029 0 0 1-.51858-.2685 1.49912 1.49912 0 0 1-.37721-.4488l-.00981-.0174a3.46184 3.46184 0 0 0-1.05908-1.1392 3.45123 3.45123 0 0 0-1.45095-.5596c-.54682-.0775-1.05294.3029-1.13045.8498-.07751.5468.30294 1.0529.84976 1.1304.21838.031.4271.1114.61034.2355a1.4625 1.4625 0 0 1 .44328.4744c.2212.3992.51825.7514.87461 1.0365a3.48969 3.48969 0 0 0 1.21471.6288c.43076.124.8812.1638 1.32677.1172.0009.2399.00154.424.00154.5175 0 .5523.42418 1 .94744 1h5.47733c.5232 0 .9474-.4477.9474-1v-3.7905c.0258-.4293-.0182-.8596-.1294-1.2722a4.00242 4.00242 0 0 0-.0497-.1694c.0597-.0149.1194-.0306.1791-.0471.8245-.2271 1.6481-.5984 2.3556-1.2225 1.2203-1.0766 1.9394-2.7604 1.9408-5.22337.0151-1.14702-.3071-2.26404-.9128-3.20054a5.3457 5.3457 0 0 0-.1216-.1801 5.60046 5.60046 0 0 0 .0303-.15123c.1938-1.04372.084-2.13164-.3242-3.11642Z"/></svg>