<svg xmlns="http://www.w3.org/2000/svg" width="800" height="800" fill="none" viewBox="0 0 24 24"><path fill="#1C274C" fill-rule="evenodd" d="M2.5192 7.82274C2 8.77128 2 9.91549 2 12.2039v1.5211c0 3.9008 0 5.8513 1.17157 7.0631C4.34315 22 6.22876 22 10 22h4c3.7712 0 5.6569 0 6.8284-1.2119C22 19.5763 22 17.6258 22 13.725v-1.5211c0-2.28841 0-3.43262-.5192-4.38116-.5192-.94853-1.4677-1.53723-3.3648-2.71462l-2-1.24125C14.1106 2.62229 13.1079 2 12 2c-1.1079 0-2.11061.62229-4.11597 1.86687l-2 1.24126C3.98695 6.28551 3.0384 6.87421 2.5192 7.82274ZM9 17.25c-.41421 0-.75.3358-.75.75s.33579.75.75.75h6c.4142 0 .75-.3358.75-.75s-.3358-.75-.75-.75H9Z" clip-rule="evenodd"/></svg>